<svg width="36" height="29" viewBox="0 0 36 29" fill="none" xmlns="http://www.w3.org/2000/svg">
<path d="M13.0374 13.2776C13.7122 13.2776 14.3728 13.2175 15.0161 13.1003C16.9348 12.7515 18.6819 11.9051 20.1202 10.6984V14.816C20.7636 14.7159 21.427 14.6644 22.0989 14.6644C22.7709 14.6644 23.4657 14.7187 24.1234 14.8245V2H20.1202V2.23733H20.0745C20.0745 5.43132 17.9356 8.13348 15.0161 8.98845C14.3899 9.17431 13.7237 9.27439 13.0374 9.27439C12.3511 9.27439 11.6534 9.17145 11.0129 8.97415C8.11632 8.10488 6.0032 5.41416 6.0032 2.23733V2H2V27H6.0032V10.7384C7.42148 11.9136 9.13428 12.7429 11.0129 13.0917C11.6706 13.2147 12.3454 13.2776 13.0374 13.2776Z" fill="#0A0A0A"/>
<path d="M29.1331 2V18.2644C27.7149 17.0892 26.0021 16.2628 24.1234 15.9111C23.4686 15.7882 22.7909 15.7253 22.0989 15.7253C21.407 15.7253 20.7607 15.7853 20.1202 15.9026C18.2015 16.2514 16.4544 17.0978 15.0161 18.3045V14.1869C14.3728 14.287 13.7094 14.3384 13.0374 14.3384C12.3654 14.3384 11.6735 14.2841 11.0129 14.1783V27H15.0161V26.7655H15.0619C15.0619 23.5715 17.2007 20.8694 20.1202 20.0144C20.7493 19.8285 21.4127 19.7285 22.0989 19.7285C22.7852 19.7285 23.4829 19.8314 24.1234 20.0287C27.0172 20.898 29.1331 23.5887 29.1331 26.7655V27H33.1363V2H29.1331Z" fill="#0A0A0A"/>
<path d="M15.0011 7.06977V2H10.9979V7.04975C11.6212 7.30996 12.3046 7.45293 13.0223 7.45293C13.7401 7.45293 14.3892 7.31854 15.0011 7.06977Z" fill="#0A0A0A"/>
</svg>
