<svg width="90" height="25" viewBox="0 0 90 25" fill="none" xmlns="http://www.w3.org/2000/svg">
<path d="M11.0374 11.2776C11.7122 11.2776 12.3728 11.2175 13.0161 11.1003C14.9348 10.7515 16.6819 9.90507 18.1202 8.69839V12.816C18.7636 12.7159 19.427 12.6644 20.0989 12.6644C20.7709 12.6644 21.4657 12.7187 22.1234 12.8245V0H18.1202V0.237333H18.0745C18.0745 3.43132 15.9356 6.13348 13.0161 6.98845C12.3899 7.17431 11.7237 7.27439 11.0374 7.27439C10.3511 7.27439 9.65344 7.17145 9.01292 6.97415C6.11632 6.10488 4.0032 3.41416 4.0032 0.237333V0H0V25H4.0032V8.73842C5.42148 9.91364 7.13428 10.7429 9.01292 11.0917C9.67059 11.2147 10.3454 11.2776 11.0374 11.2776Z" fill="#0A0A0A"/>
<path d="M27.1331 0V16.2644C25.7149 15.0892 24.0021 14.2628 22.1234 13.9111C21.4686 13.7882 20.7909 13.7253 20.0989 13.7253C19.407 13.7253 18.7607 13.7853 18.1202 13.9026C16.2015 14.2514 14.4544 15.0978 13.0161 16.3045V12.1869C12.3728 12.287 11.7094 12.3384 11.0374 12.3384C10.3654 12.3384 9.67345 12.2841 9.01292 12.1783V25H13.0161V24.7655H13.0619C13.0619 21.5715 15.2007 18.8694 18.1202 18.0144C18.7493 17.8285 19.4127 17.7285 20.0989 17.7285C20.7852 17.7285 21.4829 17.8314 22.1234 18.0287C25.0172 18.898 27.1331 21.5887 27.1331 24.7655V25H31.1363V0H27.1331Z" fill="#0A0A0A"/>
<path d="M13.0011 5.06977V0H8.99787V5.04975C9.62123 5.30996 10.3046 5.45293 11.0223 5.45293C11.7401 5.45293 12.3892 5.31854 13.0011 5.06977Z" fill="#0A0A0A"/>
<path d="M41.3573 12.3322H40.9796L37.7098 4.68949V9.91715C37.7098 10.9408 37.7496 11.4179 37.839 12.1334H37.352C37.4415 11.4179 37.4713 10.9408 37.4713 9.91715V6.39892C37.4713 5.37525 37.4415 4.8982 37.352 4.18263H39.787L42.1325 9.58918L44.2991 4.18263H46.5253C46.4458 4.8982 46.406 5.37525 46.406 6.39892V9.91715C46.406 10.9408 46.4458 11.4179 46.5253 12.1334H44.2394C44.3189 11.4179 44.3587 10.9408 44.3587 9.91715V4.65968L41.3573 12.3322Z" fill="#0A0A0A"/>
<path d="M49.9066 12.1334H47.6108C47.7003 11.4179 47.7301 10.9408 47.7301 9.91715V6.39892C47.7301 5.37525 47.7003 4.8982 47.6108 4.18263H49.9066C49.8172 4.8982 49.7874 5.37525 49.7874 6.39892V9.91715C49.7874 10.9408 49.8172 11.4179 49.9066 12.1334Z" fill="#0A0A0A"/>
<path d="M51.4356 12.1334H50.9884C51.0778 11.4179 51.1076 10.9408 51.1076 9.91715V6.39892C51.1076 5.37525 51.0778 4.8982 50.9884 4.18263H53.473L57.3391 11.6266L57.4086 11.6365V6.39892C57.4086 5.37525 57.3689 4.8982 57.2894 4.18263H57.7366C57.6472 4.8982 57.6174 5.37525 57.6174 6.39892V9.91715C57.6174 10.9408 57.6472 11.4179 57.7366 12.1334H55.252L51.3859 4.68949L51.3163 4.67955V9.91715C51.3163 10.9408 51.3462 11.4179 51.4356 12.1334Z" fill="#0A0A0A"/>
<path d="M61.8321 12.1334H58.8208C58.9102 11.4179 58.94 10.9408 58.94 9.91715V6.39892C58.94 5.37525 58.9102 4.8982 58.8208 4.18263H61.8321C64.5652 4.18263 66.3243 5.43488 66.3243 8.15803C66.3243 10.7719 64.6149 12.1334 61.8321 12.1334ZM60.9973 4.42115V11.8949H61.7626C63.1838 11.8949 64.118 10.6427 64.118 8.15803C64.118 5.57402 63.1838 4.42115 61.7626 4.42115H60.9973Z" fill="#0A0A0A"/>
<path d="M70.8529 12.3322C69.1534 12.3322 67.931 11.6763 66.9471 9.86746L68.3384 9.06243C68.726 10.7818 69.6702 12.0937 71.002 12.0937C71.797 12.0937 72.2542 11.6663 72.2542 10.9905C72.2542 10.2849 71.4691 9.78795 69.8093 8.68477C68.08 7.54184 67.4042 6.95547 67.4042 5.82248C67.4042 4.59011 68.5273 3.98386 69.8392 3.98386C71.161 3.98386 72.2343 4.52054 73.2481 5.94174L71.8666 6.53806C71.5287 5.38519 71.0218 4.22238 69.7199 4.22238C68.9646 4.22238 68.5273 4.60998 68.5273 5.08703C68.5273 5.62371 68.895 5.91193 70.4255 6.87597C72.4033 8.13816 73.3773 8.7941 73.3773 10.2054C73.3773 11.6564 72.2045 12.3322 70.8529 12.3322Z" fill="#0A0A0A"/>
<path d="M79.8281 12.1334H74.2526C74.3421 11.4179 74.3818 10.9408 74.3818 9.91715V6.39892C74.3818 5.37525 74.3421 4.8982 74.2526 4.18263H80.0468L79.4008 5.11685C78.5958 4.52054 77.8702 4.42115 77.2541 4.42115H76.4292V7.84H76.9062C77.433 7.84 77.9696 7.84 78.8939 7.74061V8.17791C77.9696 8.07852 77.433 8.07852 76.9062 8.07852H76.4292V11.8949H77.1745C78.2479 11.8949 78.7945 11.8253 80.2356 11.229L79.8281 12.1334Z" fill="#0A0A0A"/>
<path d="M85.753 12.1334H83.4572C83.5466 11.4179 83.5764 10.9408 83.5764 9.91715V4.42115H83.4472C82.8211 4.42115 82.195 4.52054 81.3899 5.11685L80.734 4.18263H88.4761L87.8202 5.11685C87.0251 4.52054 86.389 4.42115 85.7629 4.42115H85.6337V9.91715C85.6337 10.9408 85.6635 11.4179 85.753 12.1334Z" fill="#0A0A0A"/>
<path d="M42.6607 21.0162H37.1363C37.3446 18.9785 38.2865 18.417 39.4367 17.62C40.5053 16.8774 41.1483 16.2887 41.1483 15.2925C41.1483 14.405 40.6774 13.8072 39.9167 13.8072C39.1378 13.8072 38.6216 14.3416 38.6216 14.9846C38.6216 15.5008 38.9204 15.9174 39.5272 16.1347L38.368 17.0585C37.5982 16.651 37.2178 16.0623 37.2178 15.3921C37.2178 14.1876 38.7303 13.5899 40.0797 13.5899C41.4472 13.5899 43.0321 14.1604 43.0321 15.5642C43.0321 17.0313 41.6193 17.4751 40.4691 17.8917C38.7755 18.4351 38.0148 18.8064 37.562 19.9837L40.3695 19.9475C41.4744 19.9384 41.9996 19.8932 43.186 19.223L42.6607 21.0162Z" fill="#0A0A0A"/>
<path d="M56.724 13.771H57.1225C56.8961 14.242 56.8417 14.4503 56.7512 14.7853L55.2659 20.2826C55.2025 20.5724 55.1754 20.7173 55.2659 21.0162H53.038L51.8879 16.7868L50.946 20.2826C50.8736 20.5724 50.8464 20.7173 50.937 21.0162H48.7091L47.0518 14.9121C46.9069 14.3959 46.7982 14.1333 46.5989 13.771H48.8268C48.854 14.251 48.9083 14.4503 49.0351 14.9121L50.62 20.6901L51.7701 16.3793L51.3717 14.9121C51.2358 14.3959 51.1271 14.1333 50.9279 13.771H53.1558C53.1829 14.251 53.2373 14.4503 53.3641 14.9121L54.9489 20.6901L56.5248 14.7944C56.6153 14.4503 56.6968 14.2148 56.724 13.771Z" fill="#0A0A0A"/>
<path d="M62.8628 21.0162H57.7822C57.8637 20.3641 57.8999 19.9294 57.8999 18.9966V15.7906C57.8999 14.8578 57.8637 14.4231 57.7822 13.771H63.0621L62.4734 14.6223C61.7398 14.0789 61.0787 13.9884 60.5172 13.9884H59.7655V17.1038H60.2002C60.6802 17.1038 61.1693 17.1038 62.0115 17.0132V17.4117C61.1693 17.3211 60.6802 17.3211 60.2002 17.3211H59.7655V20.7988H60.4448C61.4229 20.7988 61.921 20.7354 63.2341 20.192L62.8628 21.0162Z" fill="#0A0A0A"/>
<path d="M67.9206 13.771L69.587 19.875C69.7228 20.3913 69.8315 20.6539 70.0308 21.0162H67.8029C67.7757 20.5362 67.7214 20.3369 67.5946 19.875L67.2052 18.4532H64.8414L64.4339 19.9928C64.3433 20.3369 64.2618 20.5724 64.2347 21.0162H63.8362C64.0626 20.5452 64.1169 20.3369 64.2075 20.0018L65.6837 14.5046C65.7561 14.2148 65.7833 14.0699 65.6927 13.771H67.9206ZM66.0097 14.097L64.9048 18.2358H67.1418L66.0097 14.097Z" fill="#0A0A0A"/>
<path d="M75.7997 21.0162H70.8096C70.8911 20.3641 70.9364 19.9294 70.9364 18.9966V15.7906C70.9364 14.8578 70.9092 14.4231 70.8277 13.771H72.9198C72.8382 14.4231 72.8111 14.8578 72.8111 15.7906V20.7988H73.3816C74.3597 20.7988 74.8578 20.7354 76.171 20.192L75.7997 21.0162Z" fill="#0A0A0A"/>
<path d="M79.4231 21.0162H77.3311C77.4126 20.3641 77.4398 19.9294 77.4398 18.9966V13.9884H77.322C76.7515 13.9884 76.1809 14.0789 75.4473 14.6223L74.8496 13.771H81.9046L81.3068 14.6223C80.5823 14.0789 80.0027 13.9884 79.4322 13.9884H79.3144V18.9966C79.3144 19.9294 79.3416 20.3641 79.4231 21.0162Z" fill="#0A0A0A"/>
<path d="M88.9797 15.7906V18.9966C88.9797 19.9294 89.0159 20.3641 89.0883 21.0162H86.9963C87.0778 20.3641 87.105 19.9294 87.105 18.9966V17.5023H84.37V18.9966C84.37 19.9294 84.3971 20.3641 84.4786 21.0162H82.3866C82.4681 20.3641 82.4953 19.9294 82.4953 18.9966V15.7906C82.4953 14.8578 82.4681 14.4231 82.3866 13.771H84.4786C84.3971 14.4231 84.37 14.8578 84.37 15.7906V17.2849H87.105V15.7906C87.105 14.8578 87.0778 14.4231 86.9963 13.771H89.0883C89.0159 14.4231 88.9797 14.8578 88.9797 15.7906Z" fill="#0A0A0A"/>
</svg>
